<svg version="1.1" width="32" height="32" xmlns="http://www.w3.org/2000/svg" xmlns:xlink="http://www.w3.org/1999/xlink" x="0px" y="0px" viewBox="0 0 1000 1000" enable-background="new 0 0 1000 1000" xml:space="preserve">
    <g>
        <path fill="#FFF" stroke="#FFF" d="M661.9,990c-3.6,0-3.6,0-7.2,0c-14.4-3.6-32.4-3.6-46.8-7.2c-14.4-3.6-28.8-3.6-46.8-7.2c-10.8-3.6-25.2-3.6-36-7.2l-43.2-10.8l18-25.2c18-28.8,39.6-54,54-79.2c3.6-3.6,7.2-7.2,10.8-14.4c-10.8,7.2-25.2,18-39.6,28.8c-57.6,43.2-136.8,50.4-201.6,18l-54-25.2c-7.2-3.6-14.4-10.8-18-21.6c-3.6-10.8,0-18,7.2-28.8c14.4-14.4,25.2-28.8,32.4-39.6c-10.8,3.6-18,7.2-28.8,10.8c-50.4,18-104.4,7.2-144-25.2c-39.6-32.4-61.2-50.4-64.8-54l-25.2-25.2l39.6-7.2c3.6,0,313.2-79.2,493.2-295.2l10.8-10.8l349.2,154.8l-7.2,18c-18,54-86.4,244.8-216,435.6C690.7,975.6,683.5,990,661.9,990z M550.3,928.8c7.2,0,14.4,3.6,21.6,3.6c14.4,3.6,28.8,3.6,43.2,7.2c14.4,3.6,32.4,3.6,46.8,7.2C780.7,774,845.5,601.2,870.7,536.4l-288-129.6C427.9,583.2,201.2,669.6,111.2,698.4c10.8,7.2,21.6,18,36,28.8c28.8,25.2,68.4,32.4,104.4,18c39.6-14.4,72-28.8,82.8-39.6l43.2-39.6l-10.8,57.6c-3.6,28.8-46.8,79.2-72,108l43.2,21.6c54,25.2,115.2,18,162-14.4c46.8-36,82.8-61.2,100.8-75.6c3.6-3.6,10.8-10.8,18-14.4l54-50.4l-14.4,61.2c-7.2,25.2-32.4,61.2-75.6,118.8C575.5,892.8,561.1,910.8,550.3,928.8z"/><path d="M910.3,540L561.1,385.3l7.2-18c10.8-25.2,25.2-43.2,50.4-54c36-21.6,75.6-25.2,111.6-7.2c43.2,18,82.8,36,126,57.6c57.6,25.2,86.4,86.4,68.4,147.6c0,3.6-3.6,7.2-3.6,10.8L910.3,540z M611.5,367.3l273.6,122.4c7.2-39.6-10.8-75.6-46.8-90c-39.6-18-82.8-36-126-54c-25.2-10.8-54-10.8-79.2,3.6C625.9,349.3,618.7,356.5,611.5,367.3z"/><path d="M863.5,356.5l-18-7.2l-100.8-46.8l-14.4-14.4l10.8-21.6L863.5,36.1c10.8-21.6,25.2-28.8,50.4-25.2c18,3.6,36,10.8,46.8,25.2c10.8,10.8,14.4,28.8,7.2,43.2l-97.2,259.2L863.5,356.5z M777.1,277.3l64.8,28.8l86.4-237.6c0-3.6,0-3.6,0-3.6c-3.6-7.2-10.8-10.8-21.6-10.8c-3.6,0-7.2,0-7.2,0s0,0-3.6,3.6L777.1,277.3z"/><path d="M852.7,331.3" />
    </g>
</svg>